# xmcd CD database file
#
# Track frame offsets:
#	150
#	20174
#	42336
#
# Disc length: 840 seconds
#
# Revision: 0
# Processed by: cddbd v1.5.2PL0 Copyright (c) Steve Scherf et al.
# Submitted via: CDex 1.70beta3
#
DISCID=21034603
DTITLE=WANDS - Survivor's Guilt
DYEAR=2018
DGENRE=Being GIZA
TTITLE0=Survivor's Guilt
TTITLE1=赤い花咲く頃には
TTITLE2=FROZEN WORLD (35 MIX)
EXTD=YEAR: 2018
EXTT0=
EXTT1=
EXTT2=
PLAYORDER=
